<svg xmlns="http://www.w3.org/2000/svg" width="214" height="42" viewBox="0 0 214 42" fill="none"><path d="M61.9885 27.2566H54.1639L52.8692 31H48.7318L55.7964 11.3261H60.3841L67.4487 31H63.2832L61.9885 27.2566ZM60.9189 24.1043L58.0762 15.8857L55.2335 24.1043H60.9189ZM69.639 23.2036C69.639 21.5899 69.9674 20.1826 70.6241 18.9818C71.2809 17.7621 72.1909 16.8239 73.3543 16.1672C74.5176 15.4917 75.8499 15.1539 77.351 15.1539C79.2837 15.1539 80.8786 15.6418 82.1358 16.6175C83.4117 17.5745 84.2655 18.9255 84.697 20.6705H80.447C80.2219 19.995 79.8372 19.4696 79.293 19.0943C78.7677 18.7003 78.1109 18.5033 77.3228 18.5033C76.197 18.5033 75.3057 18.9161 74.649 19.7417C73.9923 20.5485 73.6639 21.7025 73.6639 23.2036C73.6639 24.686 73.9923 25.8399 74.649 26.6655C75.3057 27.4724 76.197 27.8758 77.3228 27.8758C78.9178 27.8758 79.9592 27.1628 80.447 25.7367H84.697C84.2655 27.4255 83.4117 28.7671 82.1358 29.7616C80.8598 30.7561 79.2649 31.2533 77.351 31.2533C75.8499 31.2533 74.5176 30.9249 73.3543 30.2682C72.1909 29.5927 71.2809 28.6545 70.6241 27.4536C69.9674 26.234 69.639 24.8173 69.639 23.2036ZM87.1334 23.2036C87.1334 21.5899 87.4618 20.1826 88.1185 18.9818C88.7752 17.7621 89.6853 16.8239 90.8486 16.1672C92.012 15.4917 93.3442 15.1539 94.8453 15.1539C96.778 15.1539 98.373 15.6418 99.6301 16.6175C100.906 17.5745 101.76 18.9255 102.191 20.6705H97.9414C97.7162 19.995 97.3316 19.4696 96.7874 19.0943C96.262 18.7003 95.6053 18.5033 94.8172 18.5033C93.6914 18.5033 92.8001 18.9161 92.1434 19.7417C91.4866 20.5485 91.1583 21.7025 91.1583 23.2036C91.1583 24.686 91.4866 25.8399 92.1434 26.6655C92.8001 27.4724 93.6914 27.8758 94.8172 27.8758C96.4121 27.8758 97.4535 27.1628 97.9414 25.7367H102.191C101.76 27.4255 100.906 28.7671 99.6301 29.7616C98.3542 30.7561 96.7593 31.2533 94.8453 31.2533C93.3442 31.2533 92.012 30.9249 90.8486 30.2682C89.6853 29.5927 88.7752 28.6545 88.1185 27.4536C87.4618 26.234 87.1334 24.8173 87.1334 23.2036ZM120.136 22.8659C120.136 23.4288 120.099 23.9354 120.024 24.3857H108.624C108.718 25.5116 109.112 26.3935 109.807 27.0314C110.501 27.6694 111.355 27.9884 112.368 27.9884C113.831 27.9884 114.873 27.3598 115.492 26.1026H119.742C119.292 27.6037 118.429 28.8422 117.153 29.8179C115.877 30.7748 114.31 31.2533 112.452 31.2533C110.951 31.2533 109.6 30.9249 108.399 30.2682C107.217 29.5927 106.288 28.6451 105.613 27.4255C104.956 26.2058 104.628 24.7985 104.628 23.2036C104.628 21.5899 104.956 20.1733 105.613 18.9536C106.27 17.734 107.189 16.7958 108.371 16.139C109.553 15.4823 110.914 15.1539 112.452 15.1539C113.935 15.1539 115.257 15.4729 116.421 16.1109C117.603 16.7489 118.513 17.6589 119.151 18.841C119.808 20.0044 120.136 21.346 120.136 22.8659ZM116.055 21.74C116.036 20.7268 115.67 19.9199 114.957 19.3195C114.244 18.7003 113.372 18.3907 112.34 18.3907C111.364 18.3907 110.538 18.6909 109.863 19.2914C109.206 19.873 108.803 20.6893 108.653 21.74H116.055ZM127.516 10.1721V31H123.575V10.1721H127.516ZM130.958 23.2036C130.958 21.5899 131.287 20.1826 131.943 18.9818C132.6 17.7621 133.51 16.8239 134.674 16.1672C135.837 15.4917 137.169 15.1539 138.67 15.1539C140.603 15.1539 142.198 15.6418 143.455 16.6175C144.731 17.5745 145.585 18.9255 146.016 20.6705H141.766C141.541 19.995 141.157 19.4696 140.612 19.0943C140.087 18.7003 139.43 18.5033 138.642 18.5033C137.516 18.5033 136.625 18.9161 135.968 19.7417C135.312 20.5485 134.983 21.7025 134.983 23.2036C134.983 24.686 135.312 25.8399 135.968 26.6655C136.625 27.4724 137.516 27.8758 138.642 27.8758C140.237 27.8758 141.278 27.1628 141.766 25.7367H146.016C145.585 27.4255 144.731 28.7671 143.455 29.7616C142.179 30.7561 140.584 31.2533 138.67 31.2533C137.169 31.2533 135.837 30.9249 134.674 30.2682C133.51 29.5927 132.6 28.6545 131.943 27.4536C131.287 26.234 130.958 24.8173 130.958 23.2036ZM158.247 15.1821C159.43 15.1821 160.48 15.4448 161.4 15.9702C162.319 16.4768 163.032 17.2367 163.539 18.25C164.064 19.2444 164.327 20.4453 164.327 21.8526V31H160.387V22.3874C160.387 21.149 160.077 20.2014 159.458 19.5447C158.839 18.8692 157.994 18.5314 156.925 18.5314C155.836 18.5314 154.973 18.8692 154.335 19.5447C153.716 20.2014 153.406 21.149 153.406 22.3874V31H149.466V10.1721H153.406V17.3493C153.913 16.6738 154.589 16.1484 155.433 15.7731C156.277 15.3791 157.215 15.1821 158.247 15.1821ZM167.624 23.1473C167.624 21.5712 167.933 20.1733 168.553 18.9536C169.191 17.734 170.044 16.7958 171.114 16.139C172.202 15.4823 173.412 15.1539 174.745 15.1539C175.908 15.1539 176.921 15.3885 177.784 15.8576C178.666 16.3267 179.37 16.9177 179.895 17.6308V15.4072H183.864V31H179.895V28.7202C179.389 29.452 178.685 30.0618 177.784 30.5497C176.902 31.0188 175.88 31.2533 174.716 31.2533C173.403 31.2533 172.202 30.9156 171.114 30.2401C170.044 29.5646 169.191 28.617 168.553 27.3973C167.933 26.1589 167.624 24.7423 167.624 23.1473ZM179.895 23.2036C179.895 22.2467 179.708 21.4304 179.332 20.7549C178.957 20.0607 178.45 19.5353 177.812 19.1788C177.175 18.8035 176.49 18.6159 175.758 18.6159C175.026 18.6159 174.351 18.7941 173.731 19.1506C173.112 19.5071 172.606 20.0325 172.211 20.7268C171.836 21.4023 171.649 22.2091 171.649 23.1473C171.649 24.0855 171.836 24.9111 172.211 25.6242C172.606 26.3184 173.112 26.8532 173.731 27.2285C174.369 27.6037 175.045 27.7914 175.758 27.7914C176.49 27.7914 177.175 27.6131 177.812 27.2566C178.45 26.8813 178.957 26.3559 179.332 25.6804C179.708 24.9862 179.895 24.1606 179.895 23.2036ZM190.274 13.5496C189.579 13.5496 188.998 13.3338 188.529 12.9023C188.078 12.4519 187.853 11.8984 187.853 11.2417C187.853 10.5849 188.078 10.0408 188.529 9.60921C188.998 9.15888 189.579 8.93371 190.274 8.93371C190.968 8.93371 191.54 9.15888 191.99 9.60921C192.46 10.0408 192.694 10.5849 192.694 11.2417C192.694 11.8984 192.46 12.4519 191.99 12.9023C191.54 13.3338 190.968 13.5496 190.274 13.5496ZM192.216 15.4072V31H188.275V15.4072H192.216ZM205.312 15.1821C207.17 15.1821 208.671 15.7731 209.816 16.9553C210.96 18.1186 211.533 19.7511 211.533 21.8526V31H207.592V22.3874C207.592 21.149 207.283 20.2014 206.663 19.5447C206.044 18.8692 205.2 18.5314 204.13 18.5314C203.042 18.5314 202.179 18.8692 201.541 19.5447C200.922 20.2014 200.612 21.149 200.612 22.3874V31H196.672V15.4072H200.612V17.3493C201.138 16.6738 201.804 16.1484 202.61 15.7731C203.436 15.3791 204.337 15.1821 205.312 15.1821Z" fill="white"></path><path d="M30.8391 26.8112L30.9598 26.7629L32.3401 19.7166C32.469 19.0525 32.4208 18.3663 32.2005 17.7268C31.9801 17.0872 31.5954 16.5169 31.0848 16.0732C30.5743 15.6295 29.956 15.3279 29.292 15.1988C28.628 15.0697 27.9417 15.1176 27.3021 15.3377L20.5043 17.6772L20.487 17.7739L15.832 13.7055V13.6261L37.6887 6.10364L40.0007 8.11537L35.5941 30.8899L34.3381 29.8754L30.8391 26.8112Z" fill="url(#paint0_linear_1211_9800)"></path><path d="M22.8163 20.2618L22.906 20.3584L21.1807 27.3288C21.0195 27.9856 20.6884 28.5885 20.2206 29.0769C19.7527 29.5652 19.1646 29.9219 18.5153 30.1111C17.866 30.3002 17.1784 30.3152 16.5214 30.1545C15.8645 29.9939 15.2614 29.6632 14.7727 29.1956L9.5967 24.2301L9.62086 24.1335L3.68912 25.8588L3.67188 25.9382L20.3594 41.9287L23.3063 41.0729L28.8446 18.5537L27.2815 18.9368L22.8163 20.2618Z" fill="url(#paint1_linear_1211_9800)"></path><path d="M21.4633 7.13879L21.3632 7.05595L14.5239 9.23679C13.8801 9.44256 13.3016 9.81405 12.8467 10.314C12.3917 10.8139 12.0762 11.4247 11.9318 12.085C11.7874 12.7454 11.8192 13.4321 12.0241 14.0763C12.2289 14.7205 12.5996 15.2994 13.0988 15.7551L18.406 20.5861L18.4991 20.5551L17.1672 26.5938L17.0878 26.6179L0 11.0553L0.655639 8.06012L22.74 1L22.464 2.58388L21.4633 7.13879Z" fill="url(#paint2_linear_1211_9800)"></path><defs><linearGradient id="paint0_linear_1211_9800" x1="40.9737" y1="20.7863" x2="18.4132" y2="8.79171" gradientUnits="userSpaceOnUse"><stop offset="0.16" stop-color="#3F59A8"></stop><stop offset="1" stop-color="#70C492"></stop></linearGradient><linearGradient id="paint1_linear_1211_9800" x1="29.0793" y1="32.6325" x2="7.48143" y2="21.1486" gradientUnits="userSpaceOnUse"><stop offset="0.22" stop-color="#3F59A8"></stop><stop offset="1" stop-color="#70C492"></stop></linearGradient><linearGradient id="paint2_linear_1211_9800" x1="28.0921" y1="18.1603" x2="-2.14287" y2="2.08351" gradientUnits="userSpaceOnUse"><stop stop-color="#3F59A8"></stop><stop offset="0.54" stop-color="#70C492"></stop></linearGradient></defs></svg>